<?xml version="1.0" encoding="iso-8859-1"?>
<!-- Generator: Adobe Illustrator 19.0.0, SVG Export Plug-In . SVG Version: 6.00 Build 0)  -->
<svg version="1.1" id="Capa_1" xmlns="http://www.w3.org/2000/svg" xmlns:xlink="http://www.w3.org/1999/xlink" x="0px" y="0px"
	 viewBox="0 0 512 512" style="enable-background:new 0 0 512 512;" xml:space="preserve">
<rect x="209.58" y="413.5" style="fill:#AEADB3;" width="92.84" height="98.5"/>
<path style="fill:#FFFFFF;" d="M455.85,214.85c0,110.38-89.48,199.85-199.85,199.85S56.15,325.23,56.15,214.85
	C56.15,104.48,145.63,15,256,15S455.85,104.48,455.85,214.85z"/>
<path style="fill:#FF0435;" d="M407.92,62.93C367.34,22.35,313.39,0,256,0S144.66,22.35,104.08,62.93s-62.93,94.53-62.93,151.92
	s22.35,111.34,62.93,151.92S198.61,429.7,256,429.7s111.34-22.35,151.92-62.93s62.93-94.53,62.93-151.92S448.5,103.51,407.92,62.93z
	 M256,399.7c-101.93,0-184.85-82.92-184.85-184.85S154.07,30,256,30s184.85,82.92,184.85,184.85S357.93,399.7,256,399.7z"/>
<path style="fill:#3C3A41;" d="M281.47,77.69h-85.71v264.64h30V226.98h55.71c41.16,0,74.64-33.49,74.64-74.65
	S322.63,77.69,281.47,77.69z M281.47,196.98h-55.71v-89.29h55.71c24.61,0,44.64,20.03,44.64,44.64
	C326.11,176.95,306.08,196.98,281.47,196.98z"/>
<rect x="256" y="413.5" style="fill:#78777F;" width="46.42" height="98.5"/>
<path style="fill:#E1E1E3;" d="M455.85,214.85c0,110.38-89.48,199.85-199.85,199.85V15C366.37,15,455.85,104.48,455.85,214.85z"/>
<path style="fill:#171719;" d="M356.11,152.33c0,41.16-33.48,74.65-74.64,74.65H256v-30h25.47c24.61,0,44.64-20.03,44.64-44.65
	c0-24.61-20.03-44.64-44.64-44.64H256v-30h25.47C322.63,77.69,356.11,111.17,356.11,152.33z"/>
<path style="fill:#C2001B;" d="M470.85,214.85c0,57.39-22.35,111.34-62.93,151.92S313.39,429.7,256,429.7v-30
	c101.93,0,184.85-82.92,184.85-184.85S357.93,30,256,30V0c57.39,0,111.34,22.35,151.92,62.93S470.85,157.46,470.85,214.85z"/>
<g>
</g>
<g>
</g>
<g>
</g>
<g>
</g>
<g>
</g>
<g>
</g>
<g>
</g>
<g>
</g>
<g>
</g>
<g>
</g>
<g>
</g>
<g>
</g>
<g>
</g>
<g>
</g>
<g>
</g>
</svg>
