<svg viewBox="-91 0 512 512" xmlns="http://www.w3.org/2000/svg"><path d="m224.097656 337.699219-1.5-.300781h-57.597656l-59.398438.300781c-64.203124 13.199219-105.601562 46.199219-105.601562 84.300781 0 50.398438 72.597656 90 165 90s165-39.601562 165-90c0-38.101562-41.699219-71.398438-105.902344-84.300781zm0 0" fill="#a8d32a"/><path d="m330 422c0 50.398438-72.597656 90-165 90v-174.601562h57.597656l1.5.300781c64.203125 12.902343 105.902344 46.199219 105.902344 84.300781zm0 0" fill="#93bf00"/><path d="m165 0c-90.902344 0-165 75.097656-165 166 0 31.5 9 62.402344 25.800781 88.800781l139.199219 209.199219 127.800781-193.601562c24-29.398438 37.199219-66.296876 37.199219-104.398438 0-90.902344-74.097656-166-165-166zm0 0" fill="#e63950"/><path d="m330 166c0 38.101562-13.199219 75-37.199219 104.398438l-127.800781 193.601562v-464c90.902344 0 165 75.097656 165 166zm0 0" fill="#cc2e43"/><path d="m272.101562 138.699219-74.101562-10.800781-33-66.898438-33 66.898438-74.101562 10.800781 53.699218 52.203125-12.597656 73.5 66-34.800782 66 34.800782-12.597656-73.5zm0 0" fill="#ffd400"/><path d="m231 264.402344-66-34.800782v-168.601562l33 66.898438 74.101562 10.800781-53.699218 52.203125zm0 0" fill="#fdbf00"/></svg>